<svg id="hm-logo-lockup" xmlns="http://www.w3.org/2000/svg" width="199" height="40" viewBox="0 0 199 40">
  <title>
    Herman Miller, Inc.
  </title>
  <style>
    .hm-logo-fill{fill:#e22d00;}
  </style>
  <path class="hm-logo-fill" d="M19.9.4C9.1.4.4 9.2.4 20S9.2 39.6 20 39.6 39.6 30.8 39.6 20 30.7.4 19.9.4zm10.8 29.8s-4.2-1.5-10.8-1.5c-6.6 0-10.8 1.5-10.8 1.5V9.8h.3s1.8 18 10.5 18 10.5-18 10.5-18h.3v20.4zM81 21.3h-5c0-2.2 1-3.4 2.5-3.4 1.6 0 2.5 1.3 2.5 3.4zm39.5 1.6l-.1 3c-.5.9-1.5 1.4-2.5 1.4-1.2 0-1.9-.7-1.9-2 0-.8.2-1.3.7-1.7.5-.5 1.5-.8 3.2-.8.2.1.4.1.6.1zm66-1.6h-4.9c.1-2.2.9-3.4 2.5-3.4 1.5 0 2.4 1.3 2.4 3.4zM70.8 28.9V11.6H68v7h-6.5v-7h-2.8V29h2.8v-8.1H68V29l2.8-.1zm13.1-5.7v-.5c0-2.8-.6-4.4-1.6-5.4-.9-.9-2.2-1.4-3.6-1.4-1.7 0-3 .6-4 1.7s-1.6 2.7-1.6 4.9c0 4.1 2.3 6.7 6 6.7 1.8 0 3.4-.6 4.7-1.7l-1.1-1.6c-1 .8-2.1 1.2-3.3 1.2-1.2 0-2.2-.5-2.8-1.3-.4-.6-.5-1.5-.5-2.4v-.2h7.8zm9.1-7.1c-.3-.1-.6-.2-1.1-.2-1.4 0-2.4.8-3.3 2v-.2c0-.8-.2-1.2-.5-1.7l-2.6.7c.3.8.4 1.7.4 3.2V29h2.8v-8.5c.1-.7.3-1 .8-1.4.5-.5 1.1-.6 1.7-.6.3 0 .5.1.8.2l1-2.6zm17.8 12.8v-9.3c0-1.4-.3-2.3-1-2.9-.5-.5-1.5-.8-2.4-.8-1.4 0-2.9.7-4 1.9-.6-1.2-1.7-1.9-3.1-1.9-1.2 0-2.6.7-3.5 1.6-.1-.6-.3-1.2-.5-1.6l-2.5.6c.4.8.5 1.3.5 3.1v9.2H97v-9.4c1.1-.9 2-1.3 2.8-1.3 1.1 0 1.5.6 1.5 2v8.7h2.7v-9.2c1.1-1.1 2.1-1.6 2.9-1.6 1 0 1.4.5 1.4 1.8v8.9h2.5v.2zm13.5-1.2c-.9-.6-1.2-1.1-1.2-2.6v-.4l.1-3.8v-.8c0-1.3-.1-1.7-.2-2.2-.5-1.4-1.9-2.1-3.9-2.1-1.2 0-2.3.2-3.5.7-.7.3-1.4.6-2.1 1l1.2 1.9c.5-.4.9-.6 1.6-.9.9-.4 1.7-.6 2.4-.6.8 0 1.2.2 1.5.6s.4.8.4 1.7v.9h-.9c-4.3 0-6.6 1.5-6.6 4.5 0 1 .3 2.1 1 2.7.8.7 1.7 1 3.3 1 1.1 0 2-.3 2.8-.8.3-.2.4-.4.8-.8.3.8 1 1.4 1.8 1.7l1.5-1.7zm12.3 1.2v-9.4c0-2.4-1.4-3.5-3.5-3.5-1.4 0-2.5.5-4 1.7 0-.6-.2-1.2-.5-1.7l-2.5.7c.4.9.4 1.5.4 3v9.4h2.7v-9.2c.9-.9 2.1-1.5 3-1.5 1.1 0 1.5.5 1.5 2.3v8.4h2.9v-.2zm21.2 0l-1.5-17.4h-3.9l-3.5 12.8-3.5-12.7h-4L139.7 29h2.6l1.2-14.6 4.1 14.6h2.1l4.1-14.3L155 29h2.8v-.1zm5.6 0v-13l-2.8.4v12.5h2.8v.1zm7.8 0l-.5-1.6h-.3c-.5 0-.9-.3-.9-1.2v-12c0-1.6 0-2.8-.2-3.6l-2.8.6c.2 1 .3 1.9.3 3.7v11.5c0 1.9 1.1 3 2.7 3 .7-.1 1.2-.2 1.7-.4zm-7.3-16.4c0-1-.8-1.8-1.9-1.8-1 0-1.9.8-1.9 1.8s.9 1.8 1.8 1.8c1.2 0 2-.8 2-1.8zm13.7 16.4l-.5-1.6c-.4.1-.7 0-.9-.2-.2-.3-.3-.8-.3-2v-11c0-1.6 0-2.8-.2-3.6l-2.8.6c.2 1 .3 1.9.3 3.7v11c0 1.4.3 2.1.6 2.6.4.6 1.2.9 2.1.9.6-.1 1.1-.2 1.7-.4zm11.8-5.7v-.5c0-2.8-.6-4.4-1.6-5.4-.9-.9-2.2-1.4-3.7-1.4-1.6 0-2.9.6-4 1.7-1 1.1-1.6 2.7-1.6 4.9 0 4.1 2.3 6.7 6 6.7 1.7 0 3.4-.6 4.7-1.7l-1.1-1.6c-1 .8-2.1 1.2-3.3 1.2s-2.2-.5-2.8-1.3c-.4-.6-.6-1.5-.6-2.4v-.2h8zm9.2-7.1c-.3-.1-.6-.2-1.1-.2-1.4 0-2.5.8-3.3 2v-.2c0-.8-.2-1.2-.5-1.7l-2.5.7c.3.8.4 1.7.4 3.2V29h2.8v-8.5c.1-.7.3-1 .8-1.4.5-.5 1.1-.6 1.7-.6.3 0 .5.1.8.2l.9-2.6z"/>
</svg>
